<svg viewBox="0 0 5 5" fill="none" xmlns="http://www.w3.org/2000/svg">
<path d="M4 2.50774C4 3.0547 3.96682 3.50361 3.90047 3.85449C3.83412 4.20021 3.73223 4.46852 3.59479 4.65944C3.50948 4.77296 3.37678 4.8581 3.19668 4.91486C3.02133 4.97162 2.7891 5 2.5 5C2.20142 5 1.96446 4.97162 1.7891 4.91486C1.61848 4.8581 1.48815 4.7678 1.3981 4.64396C1.1327 4.27761 1 3.56553 1 2.50774C1 1.97626 1.03318 1.52993 1.09953 1.16873C1.17062 0.807533 1.27014 0.536636 1.3981 0.356037C1.48815 0.232198 1.61848 0.141899 1.7891 0.0851391C1.96446 0.0283797 2.20142 0 2.5 0C3.01185 0 3.35782 0.0928793 3.53791 0.278638C3.68957 0.433436 3.80332 0.699174 3.87915 1.07585C3.95972 1.45253 4 1.92982 4 2.50774ZM2.5 4.40402C2.69905 4.40402 2.8436 4.39112 2.93365 4.36532C3.02844 4.33953 3.09716 4.29567 3.13981 4.23375C3.28673 4.04283 3.36019 3.46749 3.36019 2.50774C3.36019 2.2291 3.35308 1.98658 3.33886 1.78019C3.32938 1.56863 3.3128 1.38545 3.2891 1.23065L2.08768 4.37306C2.17773 4.3937 2.31517 4.40402 2.5 4.40402ZM1.63981 2.50774C1.63981 2.75542 1.64455 2.97988 1.65403 3.18111C1.66351 3.37719 1.67773 3.55005 1.69668 3.69969L2.84834 0.588235C2.75355 0.572755 2.63744 0.565016 2.5 0.565016C2.28673 0.565016 2.13033 0.583075 2.03081 0.619195C1.93602 0.650155 1.86967 0.704334 1.83175 0.781734C1.7654 0.915893 1.71564 1.12487 1.68246 1.40867C1.65403 1.68731 1.63981 2.05366 1.63981 2.50774Z" fill="#BBBBBB"/>
</svg>
